<?xml version="1.0" standalone="no"?>
<!DOCTYPE svg PUBLIC "-//W3C//DTD SVG 20010904//EN"
 "http://www.w3.org/TR/2001/REC-SVG-20010904/DTD/svg10.dtd">
<svg version="1.0" xmlns="http://www.w3.org/2000/svg"
 width="626.000000pt" height="785.000000pt" viewBox="0 0 626.000000 785.000000"
 preserveAspectRatio="xMidYMid meet">

<g transform="translate(0.000000,785.000000) scale(0.100000,-0.100000)"
fill="#000000" stroke="none">
<path d="M2138 7833 c-16 -2 -28 -8 -28 -13 0 -4 -8 -6 -18 -3 -10 2 -53 -3
-95 -11 -42 -9 -79 -16 -82 -16 -3 0 -3 -5 0 -10 4 -7 -3 -8 -20 -4 -15 4 -43
2 -63 -4 -21 -6 -82 -22 -137 -36 -55 -14 -113 -29 -130 -34 l-30 -8 -3 -2355
c-1 -1565 1 -2371 8 -2404 6 -27 12 -61 14 -75 13 -103 56 -251 69 -243 6 3 7
1 3 -6 -11 -17 25 -105 36 -89 6 9 7 6 3 -9 -8 -29 4 -51 17 -32 7 10 7 7 3
-8 -8 -27 18 -78 101 -203 85 -127 91 -133 105 -124 8 5 10 3 4 -5 -9 -15 33
-63 48 -54 6 3 7 1 3 -6 -8 -12 19 -45 32 -38 4 3 16 -1 27 -9 10 -8 13 -14 7
-14 -7 0 -12 -5 -12 -11 0 -6 7 -8 16 -5 8 3 13 2 9 -3 -5 -9 9 -23 88 -95 17
-16 33 -23 44 -19 12 5 15 2 10 -10 -4 -11 17 -31 83 -76 49 -34 93 -61 99
-61 6 0 11 -4 11 -10 0 -5 7 -10 16 -10 8 0 12 4 9 10 -3 6 1 7 10 3 12 -4 13
-8 5 -13 -8 -5 10 -18 46 -35 117 -54 159 -68 186 -60 17 5 19 4 9 -4 -12 -8
-10 -11 10 -16 14 -3 41 -7 61 -8 20 -1 34 -5 32 -8 -4 -8 79 -23 211 -40 98
-12 336 -7 427 9 207 37 531 152 513 182 -3 5 1 7 9 4 19 -7 99 43 90 58 -5 7
-3 8 5 3 11 -6 92 41 111 65 3 3 16 14 30 23 38 26 200 189 200 201 0 6 -5 4
-10 -4 -5 -8 -10 -10 -10 -5 0 6 5 17 10 25 6 10 10 11 10 3 0 -7 5 -13 11
-13 6 0 8 7 5 16 -3 8 -2 13 3 10 16 -10 96 98 85 115 -4 7 -3 9 4 5 6 -3 18
4 26 16 19 26 21 42 4 32 -7 -5 -8 -3 -4 5 5 7 10 10 13 7 10 -10 31 20 72
102 88 175 134 339 152 542 18 201 2 485 -31 580 -5 14 -14 45 -20 69 -9 34
-14 41 -22 30 -7 -10 -8 -7 -4 12 7 31 -18 100 -27 78 -4 -8 -4 -2 -1 13 4 20
2 30 -9 34 -9 3 -13 12 -11 19 8 19 -15 57 -28 49 -6 -4 -8 -3 -4 4 9 14 -25
83 -37 75 -5 -3 -7 0 -5 8 3 8 1 22 -4 33 -8 15 -12 16 -20 5 -7 -11 -8 -9 -4
5 5 13 -1 26 -17 40 -12 12 -16 17 -8 11 12 -9 12 -7 2 13 -7 13 -17 20 -24
16 -7 -4 -9 -4 -5 1 11 11 -11 47 -24 39 -6 -4 -8 -3 -5 3 3 5 -1 20 -10 32
-12 19 -17 20 -25 10 -7 -10 -8 -9 -4 5 5 15 -6 32 -40 67 -26 27 -52 45 -57
42 -6 -3 -7 -2 -4 4 8 13 -97 114 -115 111 -7 -2 -12 2 -11 9 2 7 -10 20 -25
31 -37 25 -62 37 -38 18 11 -9 15 -16 9 -16 -14 0 -35 25 -27 32 9 9 -85 70
-96 63 -6 -4 -9 -1 -8 5 5 21 -237 139 -294 143 -16 1 -28 6 -28 11 0 4 -11 6
-25 4 -13 -3 -22 -2 -20 2 6 10 -88 30 -195 40 -47 5 -299 14 -560 19 -261 6
-490 14 -509 19 -19 4 -43 20 -55 35 -20 27 -21 39 -21 340 1 323 3 379 15
372 4 -3 15 4 25 15 10 11 26 20 36 20 10 0 21 5 24 10 4 6 159 10 433 10 417
0 544 -7 765 -40 38 -6 72 -8 77 -5 5 3 10 2 12 -2 5 -13 213 -62 239 -57 19
3 20 3 5 -4 -15 -7 -11 -10 23 -21 23 -6 52 -9 64 -6 17 5 19 4 7 -4 -12 -8
-11 -11 5 -16 11 -4 33 -12 48 -18 23 -8 31 -7 38 4 8 11 9 9 7 -6 -3 -17 2
-20 27 -18 20 2 25 -1 16 -6 -10 -6 -5 -13 19 -25 37 -18 63 -21 40 -5 -13 9
-13 10 0 6 8 -2 14 -9 13 -16 -4 -14 52 -42 70 -35 8 3 18 1 22 -5 3 -7 0 -8
-9 -5 -28 11 -17 -3 24 -30 23 -15 45 -24 51 -21 5 4 8 1 7 -7 -2 -8 6 -12 22
-10 17 1 21 -1 11 -7 -15 -10 0 -23 21 -18 7 2 10 2 5 0 -16 -10 6 -23 29 -17
14 4 24 2 24 -5 0 -6 -8 -8 -17 -5 -12 4 -9 -1 7 -15 14 -11 31 -19 37 -16 7
2 12 0 10 -4 -3 -13 153 -122 165 -115 6 4 8 2 5 -3 -9 -15 17 -35 36 -27 8 3
18 1 22 -5 4 -7 -1 -8 -12 -4 -16 6 -16 5 -4 -11 8 -9 20 -15 27 -12 8 3 13 2
12 -2 -3 -15 15 -42 28 -42 8 0 14 -5 14 -11 0 -6 7 -9 15 -6 8 4 17 1 21 -5
4 -7 3 -8 -4 -4 -24 15 -11 -7 29 -47 23 -23 48 -52 57 -65 10 -15 22 -22 34
-19 10 3 18 1 18 -4 0 -5 -5 -9 -11 -9 -8 0 -8 -4 1 -15 6 -8 17 -13 22 -12 6
1 13 -5 15 -13 4 -13 3 -13 -6 0 -6 8 -11 11 -11 7 0 -8 39 -67 51 -77 3 -3
11 -15 18 -28 7 -12 17 -20 23 -16 6 4 8 3 5 -3 -9 -15 30 -73 50 -74 11 0 13
-3 6 -6 -10 -3 -10 -10 -2 -24 5 -11 15 -16 21 -13 7 4 8 3 4 -4 -10 -16 82
-154 96 -146 7 4 8 3 4 -4 -10 -16 12 -54 26 -46 7 5 8 2 3 -6 -11 -18 56
-154 68 -137 6 8 7 7 3 -6 -8 -25 15 -72 27 -55 6 9 7 7 3 -6 -5 -15 10 -92
21 -106 2 -2 9 2 14 10 8 12 9 10 4 -7 -6 -22 33 -155 48 -161 4 -2 5 -8 2
-12 -3 -5 0 -30 6 -57 34 -150 39 -223 39 -573 -1 -341 -2 -360 -26 -475 -14
-66 -26 -129 -27 -140 -1 -11 -4 -22 -7 -25 -14 -14 -31 -83 -25 -103 4 -15 3
-18 -3 -9 -7 10 -12 6 -22 -17 -6 -17 -13 -41 -14 -55 0 -13 -4 -22 -8 -20 -3
2 -16 -20 -27 -50 -35 -93 -173 -359 -201 -386 -3 -3 -19 -25 -35 -49 -21 -31
-26 -46 -17 -49 6 -2 9 -8 6 -14 -4 -6 -10 -5 -15 3 -7 11 -11 10 -23 -6 -9
-11 -14 -25 -11 -32 2 -7 -5 -22 -16 -35 l-20 -23 17 30 c22 38 9 25 -50 -48
-25 -32 -43 -63 -40 -69 4 -6 3 -8 -3 -5 -12 7 -45 -26 -41 -39 3 -10 -36 -64
-47 -64 -3 0 -3 5 0 10 3 6 2 10 -2 10 -13 0 -38 -43 -35 -60 2 -12 1 -12 -6
-2 -6 10 -19 3 -52 -27 -23 -21 -40 -43 -36 -49 3 -5 -2 -16 -12 -23 -15 -13
-16 -12 -3 4 23 29 -2 19 -46 -19 -24 -20 -40 -40 -37 -45 3 -5 -1 -6 -9 -4
-7 3 -22 -5 -33 -17 -16 -19 -16 -20 -1 -9 15 12 20 12 30 1 9 -10 9 -11 0 -6
-7 4 -19 4 -25 -1 -7 -4 -20 -8 -28 -8 -8 0 -14 -6 -12 -13 1 -8 -2 -11 -7 -8
-5 4 -38 -12 -72 -34 -69 -44 -83 -57 -56 -47 11 4 16 3 12 -4 -4 -6 -14 -8
-23 -4 -8 3 -31 -5 -51 -17 -20 -13 -48 -30 -63 -37 -15 -8 -25 -19 -21 -24 3
-6 1 -7 -5 -3 -14 9 -83 -25 -75 -37 3 -6 1 -7 -5 -3 -6 4 -35 -4 -64 -17 -29
-13 -63 -27 -76 -31 -12 -4 -20 -11 -18 -15 3 -4 -3 -7 -12 -8 -9 0 -69 -19
-134 -41 -64 -23 -148 -49 -187 -58 -38 -9 -68 -21 -65 -25 2 -4 -4 -8 -13 -8
-10 -1 -54 -5 -98 -10 -196 -23 -343 -33 -380 -27 -22 3 -94 10 -160 16 -66 5
-149 14 -185 19 -83 13 -113 14 -105 1 3 -5 1 -10 -4 -10 -6 0 -11 6 -11 13 0
16 -133 52 -151 41 -7 -4 -10 -3 -6 3 7 11 -140 56 -163 50 -8 -2 -12 -2 -7 0
11 7 -2 23 -18 23 -13 0 -87 32 -189 81 -45 22 -60 24 -50 8 4 -8 0 -8 -15 0
-25 14 -28 23 -4 14 11 -4 14 -3 9 6 -5 8 -18 10 -35 7 -19 -5 -22 -4 -11 3
12 9 12 11 -2 16 -10 4 -22 3 -29 -1 -7 -4 -9 -3 -5 4 8 13 -28 35 -39 24 -5
-4 -5 -2 -2 4 8 13 -40 37 -55 28 -6 -4 -8 -2 -5 3 9 14 -70 66 -85 57 -6 -4
-8 -3 -4 4 3 6 -7 19 -24 28 -16 10 -30 22 -30 26 0 4 -6 8 -14 8 -7 0 -37 23
-67 50 -52 48 -78 64 -63 38 4 -8 3 -10 -2 -5 -5 5 -9 13 -9 17 0 17 -107 110
-119 103 -6 -3 -8 -2 -3 2 11 13 -23 44 -41 38 -13 -4 -14 -2 -4 4 10 8 10 12
-3 23 -8 7 -15 10 -15 6 0 -4 -11 1 -25 10 -19 12 -24 22 -19 37 5 16 3 19
-10 14 -11 -4 -15 -3 -11 4 9 14 -15 40 -29 32 -6 -3 -8 -3 -4 2 8 8 -29 64
-62 95 -8 8 -23 28 -33 43 -10 15 -22 25 -26 22 -5 -2 -8 3 -7 12 0 10 -6 18
-14 18 -8 1 -14 7 -12 14 2 8 -10 32 -25 55 -33 49 -53 71 -53 59 0 -5 5 -14
12 -21 8 -8 8 -12 1 -12 -13 0 -25 28 -18 41 8 12 -24 71 -34 64 -5 -2 -8 3
-7 13 0 9 -5 16 -12 14 -8 -1 -11 2 -8 7 9 14 -5 42 -17 34 -5 -3 -7 -1 -3 5
8 13 -69 173 -79 164 -5 -4 -5 -2 -1 5 8 14 -21 93 -40 109 -8 6 -11 13 -8 17
3 3 0 24 -7 46 -8 29 -15 38 -21 29 -5 -9 -7 -7 -6 7 2 11 -3 48 -11 83 -10
45 -17 59 -23 50 -7 -9 -8 -8 -4 6 8 23 -4 92 -13 77 -4 -6 -7 22 -8 62 -1 40
-7 92 -13 117 -21 85 -29 832 -29 2693 -1 1309 -4 1857 -12 1857 -6 0 -8 -9
-4 -22 5 -18 4 -19 -4 -8 -8 12 -15 11 -48 -6 -118 -64 -148 -84 -126 -84 7 0
15 5 18 10 3 6 11 10 18 10 6 0 1 -7 -11 -16 -12 -8 -27 -12 -33 -9 -11 7 -98
-42 -180 -102 -26 -18 -49 -33 -53 -33 -13 0 -45 -34 -39 -43 3 -6 1 -7 -5 -3
-6 4 -30 -5 -52 -20 -31 -20 -38 -30 -28 -37 10 -6 9 -7 -4 -4 -10 4 -35 -8
-62 -29 -49 -37 -57 -47 -28 -37 18 7 17 5 -12 -17 -13 -10 -17 -10 -12 -2 4
6 3 12 -2 12 -5 0 -14 -6 -20 -12 -15 -19 -18 -3739 -3 -3960 15 -235 48 -460
61 -424 4 12 6 0 6 -30 0 -64 22 -143 35 -123 6 9 7 2 3 -21 -5 -28 -3 -32 6
-20 10 13 11 12 6 -3 -3 -10 1 -44 10 -74 12 -41 19 -52 26 -42 7 10 8 7 4
-11 -7 -29 41 -163 55 -155 5 4 6 -1 3 -10 -9 -23 37 -119 49 -103 6 9 7 7 3
-6 -9 -27 34 -132 46 -114 7 9 8 8 4 -5 -8 -24 51 -140 66 -131 6 4 8 3 5 -4
-9 -14 68 -148 83 -144 7 1 10 -3 7 -10 -2 -7 0 -21 5 -32 8 -15 12 -16 20 -5
8 11 9 11 5 -2 -7 -22 30 -82 45 -73 6 4 8 3 5 -4 -9 -13 2 -42 15 -42 6 0 7
8 4 18 -4 10 2 7 14 -8 11 -14 20 -29 20 -34 0 -6 -7 -1 -15 10 -8 10 -15 14
-15 7 0 -6 6 -18 13 -25 7 -7 34 -41 60 -75 26 -34 53 -65 60 -69 9 -5 9 -4
-1 7 -6 7 -12 17 -12 23 0 5 6 1 14 -9 8 -11 12 -23 9 -28 -2 -4 1 -15 8 -23
10 -12 14 -12 22 -2 6 9 7 8 3 -5 -3 -10 0 -24 7 -32 7 -7 25 -27 40 -45 16
-18 32 -28 38 -24 7 4 9 3 6 -3 -3 -5 5 -21 17 -36 24 -28 43 -37 30 -14 -4 7
-3 8 2 4 5 -5 9 -16 9 -25 0 -9 6 -16 13 -14 6 1 11 -2 10 -6 -5 -14 100 -115
111 -107 7 3 8 0 5 -9 -3 -9 -1 -16 5 -16 6 0 11 5 11 11 0 5 5 7 11 3 8 -5 8
-9 -1 -14 -7 -4 11 -27 51 -63 57 -52 90 -73 73 -46 -10 18 28 -6 50 -30 11
-12 15 -21 11 -21 -4 0 0 -9 10 -20 12 -13 26 -18 39 -14 15 4 17 3 7 -4 -17
-12 1 -24 26 -16 13 4 15 3 4 -4 -16 -12 1 -25 22 -16 8 3 18 1 22 -5 3 -7 0
-8 -9 -5 -9 3 -16 1 -16 -5 0 -10 21 -16 43 -12 5 1 6 -3 3 -8 -4 -5 7 -19 23
-30 32 -23 56 -28 45 -9 -4 7 -3 8 4 4 6 -4 9 -12 7 -19 -6 -15 41 -38 63 -30
13 4 14 3 3 -5 -7 -5 -9 -12 -5 -15 5 -2 26 -14 46 -26 21 -12 54 -30 74 -41
19 -11 39 -18 44 -15 4 3 11 -2 14 -11 4 -10 14 -14 26 -11 11 3 18 1 14 -4
-7 -12 44 -31 58 -23 6 4 8 3 5 -3 -3 -5 17 -20 46 -32 29 -13 62 -27 74 -33
11 -6 26 -8 31 -4 5 3 13 -1 16 -10 4 -11 14 -15 31 -12 13 3 22 2 20 -2 -5
-8 72 -40 95 -40 9 1 4 7 -10 15 -14 8 -19 14 -12 15 7 0 23 -11 35 -23 12
-13 33 -27 47 -30 14 -3 59 -16 100 -27 143 -40 255 -63 455 -95 153 -25 552
-26 719 -2 66 9 122 20 125 24 3 5 24 8 46 9 35 0 164 25 219 41 15 4 16 7 5
14 -9 7 -5 8 13 3 31 -7 177 32 194 52 6 8 14 11 17 8 9 -9 108 26 102 36 -3
4 4 6 16 3 12 -3 24 -2 28 3 3 5 24 15 46 23 53 18 257 117 320 154 145 86
147 88 128 104 -16 13 -16 13 5 3 19 -9 30 -6 68 19 25 17 47 31 50 31 10 0
49 42 49 53 1 7 7 11 14 9 19 -4 83 47 75 60 -4 7 -2 8 5 4 10 -7 53 24 143
103 14 12 24 29 21 37 -3 8 0 14 7 14 6 0 8 -4 5 -10 -3 -5 -2 -10 3 -10 14 0
53 46 45 53 -3 4 0 7 7 7 22 0 59 41 53 59 -4 14 -3 14 6 1 10 -14 16 -7 12
13 -1 5 2 6 7 3 4 -2 14 0 22 5 12 8 12 12 2 16 -6 2 -9 9 -6 15 4 7 9 6 14
-2 10 -16 72 49 65 67 -2 7 2 10 9 7 14 -5 38 18 34 34 -2 5 1 10 5 10 17 0
67 56 65 71 -2 9 2 16 9 16 11 0 123 141 123 154 -1 3 -10 -5 -20 -18 -22 -25
-26 -21 -10 10 6 10 18 19 28 19 20 0 55 57 45 72 -3 6 -2 8 4 5 22 -14 208
316 197 350 -4 12 -3 14 3 5 11 -14 14 -9 74 135 23 54 36 99 32 109 -4 11 -2
15 4 11 12 -8 76 181 76 225 0 15 4 25 7 23 4 -3 12 17 18 43 52 225 72 331
68 354 -3 15 -1 28 5 30 15 5 39 239 39 383 0 142 -14 347 -30 435 -5 30 -14
87 -20 125 -18 115 -20 121 -31 104 -7 -10 -8 -6 -3 13 9 40 -58 298 -78 298
-5 0 -7 4 -3 10 8 12 -25 111 -35 105 -5 -3 -6 4 -3 15 3 11 1 26 -4 33 -5 6
-25 49 -43 95 -24 61 -35 80 -42 70 -7 -10 -8 -8 -4 5 6 20 -53 149 -66 141
-4 -3 -5 3 -1 12 5 13 3 15 -7 9 -8 -5 -11 -4 -6 3 11 18 -41 112 -59 106 -8
-4 -15 -1 -15 6 0 6 5 8 10 5 6 -3 10 -1 10 5 0 6 -7 13 -15 16 -8 4 -13 10
-10 14 3 4 -4 19 -15 31 -18 21 -19 22 -14 4 4 -15 4 -17 -4 -6 -6 8 -8 20 -5
28 3 8 -2 13 -13 14 -11 0 -14 3 -7 6 10 3 10 10 2 24 -5 11 -14 17 -18 15 -4
-3 -8 1 -8 8 0 20 -56 105 -70 106 -6 0 -15 5 -19 12 -4 7 -3 8 4 4 8 -5 10
-2 6 8 -7 18 -21 21 -26 6 -2 -6 -9 0 -17 12 -13 21 -13 22 2 9 22 -18 22 0 0
27 -10 11 -25 30 -33 42 -31 45 -80 95 -74 75 5 -16 4 -17 -4 -5 -6 8 -8 18
-6 22 3 5 -12 26 -32 48 -28 29 -40 37 -47 27 -6 -8 -7 -7 -4 4 3 9 -5 28 -18
42 -22 27 -43 37 -29 15 4 -7 3 -8 -4 -4 -6 4 -8 14 -5 23 5 12 2 15 -10 10
-11 -4 -14 -2 -10 9 3 7 0 15 -6 15 -6 1 -17 2 -23 3 -7 1 -12 10 -10 20 3 13
-1 17 -12 13 -9 -4 -15 -1 -13 6 1 7 -5 11 -13 9 -8 -2 -12 0 -7 4 8 9 -21 44
-37 44 -6 0 -4 -5 4 -10 8 -5 10 -10 4 -10 -6 0 -21 12 -35 27 -22 25 -22 26
-1 9 12 -11 22 -15 21 -10 0 13 -58 57 -74 57 -7 0 -11 6 -8 14 3 7 0 13 -5
13 -6 0 -17 6 -24 13 -23 22 -82 61 -75 50 4 -7 2 -15 -4 -19 -8 -4 -9 -3 -5
4 4 7 2 12 -4 12 -6 0 -8 5 -5 11 10 15 -26 39 -50 33 -13 -3 -16 -2 -8 3 20
14 -23 45 -50 38 -16 -4 -18 -4 -8 3 17 12 -1 24 -26 16 -13 -4 -15 -3 -4 4
17 12 -1 24 -26 16 -13 -4 -14 -3 -5 4 10 7 7 13 -12 25 -27 18 -51 23 -26 6
13 -9 13 -10 0 -6 -8 2 -14 9 -13 15 3 13 -80 63 -107 65 -10 1 -18 6 -17 12
1 5 -8 10 -20 9 -13 0 -21 2 -18 4 11 12 -36 32 -62 27 -21 -4 -23 -3 -8 3 18
8 16 11 -17 26 -20 10 -42 14 -49 10 -7 -4 -9 -3 -6 3 3 5 -22 22 -56 38 -34
15 -70 31 -80 36 -9 5 -30 7 -45 3 -20 -4 -23 -3 -12 5 13 9 13 11 0 15 -267
97 -346 118 -650 176 -115 22 -270 34 -437 35 -101 0 -183 3 -183 8 0 4 -146
7 -324 7 -200 0 -335 4 -352 10 -21 8 -30 8 -36 -2 -7 -10 -8 -10 -6 2 1 8 -4
26 -12 40 -13 21 -15 140 -18 778 l-3 752 -37 -1 c-20 -1 -49 -4 -64 -6z
m-371 -99 c-3 -3 -12 -4 -19 -1 -8 3 -5 6 6 6 11 1 17 -2 13 -5z m-92 -24
c-11 -5 -29 -8 -40 -8 -16 0 -15 2 5 8 34 11 60 11 35 0z m-1006 -404 c-2 -2
-15 -9 -29 -15 -24 -11 -24 -11 -6 3 16 13 49 24 35 12z m48 -48 c-2 -13 -4
-5 -4 17 -1 22 1 32 4 23 2 -10 2 -28 0 -40z m-257 -77 c0 -5 -10 -11 -22 -14
-22 -6 -22 -6 -4 8 23 17 26 18 26 6z m-65 -41 c-10 -11 -25 -20 -34 -20 -10
0 -4 8 14 19 39 25 42 25 20 1z m1854 -832 c6 -18 7 -28 2 -23 -10 12 -25 55
-18 55 3 0 10 -15 16 -32z m1248 -94 c-3 -3 -12 -4 -19 -1 -8 3 -5 6 6 6 11 1
17 -2 13 -5z m-14 -21 c-7 -2 -21 -2 -30 0 -10 3 -4 5 12 5 17 0 24 -2 18 -5z
m140 0 c-7 -2 -19 -2 -25 0 -7 3 -2 5 12 5 14 0 19 -2 13 -5z m54 -9 c-3 -3
-12 -4 -19 -1 -8 3 -5 6 6 6 11 1 17 -2 13 -5z m-50 -10 c-3 -3 -12 -4 -19 -1
-8 3 -5 6 6 6 11 1 17 -2 13 -5z m270 -40 c-3 -3 -12 -4 -19 -1 -8 3 -5 6 6 6
11 1 17 -2 13 -5z m113 -32 c3 -3 -8 -2 -25 2 -16 4 -34 12 -40 17 -5 5 6 4
25 -2 19 -7 37 -14 40 -17z m157 -48 c-3 -3 -12 -4 -19 -1 -8 3 -5 6 6 6 11 1
17 -2 13 -5z m230 -90 c-3 -3 -12 -4 -19 -1 -8 3 -5 6 6 6 11 1 17 -2 13 -5z
m0 -30 c-3 -3 -12 -4 -19 -1 -8 3 -5 6 6 6 11 1 17 -2 13 -5z m313 -135 c17
-13 18 -17 5 -10 -33 17 -51 31 -40 31 6 0 21 -10 35 -21z m-1327 -216 c-7 -2
-19 -2 -25 0 -7 3 -2 5 12 5 14 0 19 -2 13 -5z m-750 -10 c-7 -2 -21 -2 -30 0
-10 3 -4 5 12 5 17 0 24 -2 18 -5z m594 1 c-3 -3 -12 -4 -19 -1 -8 3 -5 6 6 6
11 1 17 -2 13 -5z m-774 -21 c-7 -2 -21 -2 -30 0 -10 3 -4 5 12 5 17 0 24 -2
18 -5z m120 0 c-13 -2 -33 -2 -45 0 -13 2 -3 4 22 4 25 0 35 -2 23 -4z m90 0
c-7 -2 -19 -2 -25 0 -7 3 -2 5 12 5 14 0 19 -2 13 -5z m534 1 c-3 -3 -12 -4
-19 -1 -8 3 -5 6 6 6 11 1 17 -2 13 -5z m126 -11 c-7 -2 -21 -2 -30 0 -10 3
-4 5 12 5 17 0 24 -2 18 -5z m-1112 -50 c-12 -20 -14 -14 -5 12 4 9 9 14 11
11 3 -2 0 -13 -6 -23z m2414 -471 c-3 -3 -11 0 -18 7 -9 10 -8 11 6 5 10 -3
15 -9 12 -12z m1045 -112 c12 -16 19 -30 16 -30 -2 0 -14 14 -26 30 -12 17
-19 30 -16 30 2 0 14 -13 26 -30z m-3443 -62 c-3 -7 -5 -2 -5 12 0 14 2 19 5
13 2 -7 2 -19 0 -25z m20 -90 c-3 -8 -6 -5 -6 6 -1 11 2 17 5 13 3 -3 4 -12 1
-19z m980 -64 c-3 -3 -12 -4 -19 -1 -8 3 -5 6 6 6 11 1 17 -2 13 -5z m248 -34
c3 -6 -1 -7 -9 -4 -18 7 -21 14 -7 14 6 0 13 -4 16 -10z m1565 -50 c12 -16 18
-30 13 -30 -5 0 -17 14 -26 30 -10 17 -16 30 -13 30 2 0 14 -13 26 -30z m785
10 c3 -5 1 -10 -4 -10 -6 0 -11 5 -11 10 0 6 2 10 4 10 3 0 8 -4 11 -10z
m-2100 -10 c3 -5 1 -10 -4 -10 -6 0 -11 5 -11 10 0 6 2 10 4 10 3 0 8 -4 11
-10z m70 -30 c3 -6 -1 -7 -9 -4 -18 7 -21 14 -7 14 6 0 13 -4 16 -10z m2134
-115 c0 -5 -6 1 -14 15 -8 14 -14 30 -14 35 0 6 6 -1 14 -15 8 -14 14 -29 14
-35z m-719 -120 c0 -11 -14 7 -31 40 -7 13 -3 12 10 -5 11 -14 21 -29 21 -35z
m789 -30 c0 -5 -8 6 -19 25 -11 19 -19 40 -19 45 0 6 8 -6 19 -25 11 -19 19
-39 19 -45z m-769 5 c0 -5 -2 -10 -4 -10 -3 0 -8 5 -11 10 -3 6 -1 10 4 10 6
0 11 -4 11 -10z m-980 -60 c0 -5 -2 -10 -4 -10 -3 0 -8 5 -11 10 -3 6 -1 10 4
10 6 0 11 -4 11 -10z m69 -73 l25 -32 -32 29 c-33 31 -37 36 -24 35 4 0 18
-14 31 -32z m979 8 c-3 -3 -9 2 -12 12 -6 14 -5 15 5 6 7 -7 10 -15 7 -18z
m-934 -101 c3 -8 2 -12 -4 -9 -6 3 -10 10 -10 16 0 14 7 11 14 -7z m-1139 -95
c61 -5 121 -10 135 -11 14 -2 31 -9 39 -16 8 -8 27 -12 42 -10 15 3 27 0 26
-6 -1 -5 6 -12 17 -14 11 -2 16 0 12 7 -5 7 -1 8 9 4 12 -4 13 -8 5 -13 -17
-10 6 -24 26 -16 8 3 13 2 10 -3 -3 -5 12 -20 34 -35 41 -27 55 -32 46 -17 -4
5 3 7 14 4 11 -3 20 -9 20 -14 0 -5 -8 -6 -17 -3 -11 3 -6 -5 12 -21 42 -38
138 -131 150 -147 6 -7 22 -29 35 -48 14 -19 28 -37 31 -40 11 -9 69 -128 83
-172 38 -112 48 -175 49 -308 1 -122 -2 -144 -27 -225 -49 -157 -130 -292
-238 -397 -44 -43 -62 -68 -38 -53 16 10 11 -1 -7 -16 -14 -12 -16 -12 -9 0 6
9 4 12 -5 9 -8 -3 -14 -10 -14 -15 0 -6 -4 -15 -9 -20 -5 -5 -6 -3 -2 5 11 19
-2 14 -50 -19 -25 -17 -66 -39 -92 -51 -26 -11 -61 -26 -78 -34 -82 -36 -159
-49 -299 -49 -169 1 -258 21 -390 88 -77 39 -156 98 -227 170 -39 40 -74 71
-78 70 -4 -1 -7 4 -7 10 0 7 -16 35 -36 64 -135 192 -161 349 -155 928 3 283
5 324 21 352 21 39 48 55 107 64 70 10 732 9 855 -2z m2902 -71 c-3 -8 -6 -5
-6 6 -1 11 2 17 5 13 3 -3 4 -12 1 -19z m-694 -38 c3 -11 1 -18 -4 -14 -5 3
-9 12 -9 20 0 20 7 17 13 -6z m-1736 -47 c-4 -3 -1 -13 6 -21 11 -13 9 -14
-10 -1 -16 9 -19 16 -10 21 15 9 23 10 14 1z m2446 -8 c-3 -9 -8 -14 -10 -11
-3 3 -2 9 2 15 9 16 15 13 8 -4z m-2323 -125 c0 -5 -2 -10 -4 -10 -3 0 -8 5
-11 10 -3 6 -1 10 4 10 6 0 11 -4 11 -10z m1677 -67 c-3 -10 -5 -4 -5 12 0 17
2 24 5 18 2 -7 2 -21 0 -30z m10 -55 c-3 -7 -5 -2 -5 12 0 14 2 19 5 13 2 -7
2 -19 0 -25z m-860 -10 c-3 -7 -5 -2 -5 12 0 14 2 19 5 13 2 -7 2 -19 0 -25z
m870 -55 c-3 -10 -5 -4 -5 12 0 17 2 24 5 18 2 -7 2 -21 0 -30z m690 5 c-3 -8
-6 -5 -6 6 -1 11 2 17 5 13 3 -3 4 -12 1 -19z m10 -70 c-3 -7 -5 -2 -5 12 0
14 2 19 5 13 2 -7 2 -19 0 -25z m-1530 -35 c-3 -10 -5 -4 -5 12 0 17 2 24 5
18 2 -7 2 -21 0 -30z m10 -55 c-3 -8 -6 -5 -6 6 -1 11 2 17 5 13 3 -3 4 -12 1
-19z m10 -105 c-3 -10 -5 -2 -5 17 0 19 2 27 5 18 2 -10 2 -26 0 -35z m-3980
-205 c-3 -8 -6 -5 -6 6 -1 11 2 17 5 13 3 -3 4 -12 1 -19z m5510 -35 c-3 -10
-5 -2 -5 17 0 19 2 27 5 18 2 -10 2 -26 0 -35z m-1540 -95 c-3 -7 -5 -2 -5 12
0 14 2 19 5 13 2 -7 2 -19 0 -25z m-690 0 c-3 -8 -6 -5 -6 6 -1 11 2 17 5 13
3 -3 4 -12 1 -19z m-11 -44 c-4 -9 -9 -15 -11 -12 -3 3 -3 13 1 22 4 9 9 15
11 12 3 -3 3 -13 -1 -22z m-2409 -116 c-3 -7 -5 -2 -5 12 0 14 2 19 5 13 2 -7
2 -19 0 -25z m2356 -13 c-3 -9 -8 -14 -10 -11 -3 3 -2 9 2 15 9 16 15 13 8 -4z
m1574 -52 c-3 -10 -5 -4 -5 12 0 17 2 24 5 18 2 -7 2 -21 0 -30z m-1615 -35
c-7 -7 -12 -8 -12 -2 0 6 3 14 7 17 3 4 9 5 12 2 2 -3 -1 -11 -7 -17z m745
-10 c-3 -8 -6 -5 -6 6 -1 11 2 17 5 13 3 -3 4 -12 1 -19z m-786 -45 c-12 -20
-14 -14 -5 12 4 9 9 14 11 11 3 -2 0 -13 -6 -23z m-26 -42 c-3 -6 -11 -11 -16
-11 -5 0 -4 6 3 14 14 16 24 13 13 -3z m-15 -31 c0 -5 -5 -10 -11 -10 -5 0 -7
5 -4 10 3 6 8 10 11 10 2 0 4 -4 4 -10z m730 -64 c0 -3 -4 -8 -10 -11 -5 -3
-10 -1 -10 4 0 6 5 11 10 11 6 0 10 -2 10 -4z m-27 -111 c-3 -9 -8 -14 -10
-11 -3 3 -2 9 2 15 9 16 15 13 8 -4z m-2763 -16 c0 -6 -4 -7 -10 -4 -5 3 -10
11 -10 16 0 6 5 7 10 4 6 -3 10 -11 10 -16z m4367 -1 c-3 -8 -6 -5 -6 6 -1 11
2 17 5 13 3 -3 4 -12 1 -19z m-4339 -54 c-4 -3 -12 5 -18 18 -12 22 -12 22 6
6 10 -10 15 -20 12 -24z m32 -42 c0 -15 -2 -15 -10 -2 -13 20 -13 33 0 25 6
-3 10 -14 10 -23z m-955 -2 c3 -5 1 -10 -4 -10 -6 0 -11 5 -11 10 0 6 2 10 4
10 3 0 8 -4 11 -10z m3529 -35 c-4 -8 -11 -15 -16 -15 -6 0 -5 6 2 15 7 8 14
15 16 15 2 0 1 -7 -2 -15z m16 -29 c0 -3 -4 -8 -10 -11 -5 -3 -10 -1 -10 4 0
6 5 11 10 11 6 0 10 -2 10 -4z m-3466 -46 c14 -29 14 -31 1 -16 -8 11 -15 24
-15 29 0 4 -4 5 -10 2 -6 -3 -7 1 -4 10 8 19 7 19 28 -25z m4397 13 c-12 -20
-14 -14 -5 12 4 9 9 14 11 11 3 -2 0 -13 -6 -23z m-966 8 c3 -5 2 -12 -3 -15
-5 -3 -9 1 -9 9 0 17 3 19 12 6z m-2444 -48 c13 -16 12 -17 -3 -4 -17 13 -22
21 -14 21 2 0 10 -8 17 -17z m2279 -48 c-7 -9 -15 -13 -19 -10 -3 3 1 10 9 15
21 14 24 12 10 -5z m1069 -44 c-12 -23 -24 -39 -26 -38 -2 2 7 22 19 45 13 22
24 39 26 37 2 -2 -6 -22 -19 -44z m-1039 -25 c0 -2 -7 -7 -16 -10 -8 -3 -12
-2 -9 4 6 10 25 14 25 6z m1768 -27 c-6 -16 -12 -29 -13 -27 -6 6 8 58 16 58
4 0 3 -14 -3 -31z m-4988 -33 c0 -3 -4 -8 -10 -11 -5 -3 -10 -1 -10 4 0 6 5
11 10 11 6 0 10 -2 10 -4z m4163 -81 c-3 -9 -8 -14 -10 -11 -3 3 -2 9 2 15 9
16 15 13 8 -4z m-1138 -15 c3 -5 1 -10 -4 -10 -6 0 -11 5 -11 10 0 6 2 10 4
10 3 0 8 -4 11 -10z m-1780 -30 c10 -11 16 -20 13 -20 -3 0 -13 9 -23 20 -10
11 -16 20 -13 20 3 0 13 -9 23 -20z m-1131 -6 c5 -14 4 -15 -9 -4 -17 14 -19
20 -6 20 5 0 12 -7 15 -16z m4006 -18 c0 -2 -8 -10 -17 -17 -16 -13 -17 -12
-4 4 13 16 21 21 21 13z m-2680 -88 c0 -5 -9 -4 -20 2 -11 6 -20 12 -20 14 0
2 9 2 20 -1 11 -3 20 -9 20 -15z m1379 18 c-2 -2 -15 -9 -29 -15 -24 -11 -24
-11 -6 3 16 13 49 24 35 12z m-3376 -106 c3 -11 3 -20 1 -20 -2 0 -8 9 -14 20
-6 11 -7 20 -2 20 6 0 12 -9 15 -20z m35 -66 c-4 -3 -12 5 -18 18 -12 22 -12
22 6 6 10 -10 15 -20 12 -24z m2409 30 c-3 -3 -12 -4 -19 -1 -8 3 -5 6 6 6 11
1 17 -2 13 -5z m240 0 c-3 -3 -12 -4 -19 -1 -8 3 -5 6 6 6 11 1 17 -2 13 -5z
m2654 -21 c-12 -20 -14 -14 -5 12 4 9 9 14 11 11 3 -2 0 -13 -6 -23z m-2734 1
c-3 -3 -12 -4 -19 -1 -8 3 -5 6 6 6 11 1 17 -2 13 -5z m110 0 c-3 -3 -12 -4
-19 -1 -8 3 -5 6 6 6 11 1 17 -2 13 -5z m-1642 -214 c3 -5 1 -10 -4 -10 -6 0
-11 5 -11 10 0 6 2 10 4 10 3 0 8 -4 11 -10z m4059 -94 c-9 -15 -19 -25 -21
-22 -3 2 3 16 13 30 9 15 19 25 21 22 3 -2 -3 -16 -13 -30z m-4889 14 c3 -5 1
-10 -4 -10 -6 0 -11 5 -11 10 0 6 2 10 4 10 3 0 8 -4 11 -10z m3955 -10 c0 -5
-5 -10 -11 -10 -5 0 -7 5 -4 10 3 6 8 10 11 10 2 0 4 -4 4 -10z m-2970 -30 c0
-5 -2 -10 -4 -10 -3 0 -8 5 -11 10 -3 6 -1 10 4 10 6 0 11 -4 11 -10z m-862
-125 c-3 -3 -9 2 -12 12 -6 14 -5 15 5 6 7 -7 10 -15 7 -18z m1052 -9 c0 -2
-9 -2 -20 1 -11 3 -20 9 -20 15 0 5 9 4 20 -2 11 -6 20 -12 20 -14z m-1015
-16 c3 -5 1 -10 -4 -10 -6 0 -11 5 -11 10 0 6 2 10 4 10 3 0 8 -4 11 -10z
m1060 -10 c3 -5 1 -10 -4 -10 -6 0 -11 5 -11 10 0 6 2 10 4 10 3 0 8 -4 11
-10z m-30 -18 c-3 -3 -11 0 -18 7 -9 10 -8 11 6 5 10 -3 15 -9 12 -12z m2465
8 c0 -5 -5 -10 -11 -10 -5 0 -7 5 -4 10 3 6 8 10 11 10 2 0 4 -4 4 -10z m1046
-25 c-9 -9 -16 -13 -16 -8 0 12 22 34 28 28 2 -2 -3 -11 -12 -20z m-1166 -39
c0 -2 -7 -7 -16 -10 -8 -3 -12 -2 -9 4 6 10 25 14 25 6z m-63 -92 c-3 -3 -12
-4 -19 -1 -8 3 -5 6 6 6 11 1 17 -2 13 -5z m-1770 -60 c-3 -3 -12 -4 -19 -1
-8 3 -5 6 6 6 11 1 17 -2 13 -5z m1390 -30 c-3 -3 -12 -4 -19 -1 -8 3 -5 6 6
6 11 1 17 -2 13 -5z m-2647 -19 c7 -8 9 -15 6 -15 -4 0 -14 7 -22 15 -9 8 -11
15 -6 15 5 0 15 -7 22 -15z m1543 -52 c-7 -2 -19 -2 -25 0 -7 3 -2 5 12 5 14
0 19 -2 13 -5z m2102 -211 c-3 -3 -11 0 -18 7 -9 10 -8 11 6 5 10 -3 15 -9 12
-12z m-115 -77 c0 -2 -13 -11 -30 -20 -16 -9 -30 -12 -30 -8 0 5 10 13 23 19
25 13 37 16 37 9z m-75 -45 c-3 -5 -12 -10 -18 -10 -7 0 -6 4 3 10 19 12 23
12 15 0z m-40 -20 c-3 -5 -11 -10 -16 -10 -6 0 -7 5 -4 10 3 6 11 10 16 10 6
0 7 -4 4 -10z m-2635 -90 c19 -11 31 -19 25 -19 -5 0 -26 8 -45 19 -19 11 -30
19 -25 19 6 0 26 -8 45 -19z m2185 -70 c3 -6 -1 -7 -9 -4 -18 7 -21 14 -7 14
6 0 13 -4 16 -10z m-1888 -16 c-3 -3 -12 -4 -19 -1 -8 3 -5 6 6 6 11 1 17 -2
13 -5z m1928 -4 c-3 -5 -12 -10 -18 -10 -7 0 -6 4 3 10 19 12 23 12 15 0z
m-1835 -50 c8 -5 11 -10 5 -10 -5 0 -17 5 -25 10 -8 5 -10 10 -5 10 6 0 17 -5
25 -10z m96 -28 c-10 -2 -22 0 -28 6 -6 6 0 7 19 4 21 -5 23 -7 9 -10z m1147
-69 c-7 -2 -19 -2 -25 0 -7 3 -2 5 12 5 14 0 19 -2 13 -5z m-396 -29 c-3 -3
-12 -4 -19 -1 -8 3 -5 6 6 6 11 1 17 -2 13 -5z"/>
<path d="M1980 2030 c0 -5 5 -10 11 -10 5 0 7 5 4 10 -3 6 -8 10 -11 10 -2 0
-4 -4 -4 -10z"/>
<path d="M1385 1500 c10 -11 20 -18 23 -16 5 6 -23 36 -34 36 -4 0 1 -9 11
-20z"/>
<path d="M4871 1484 c-7 -8 -11 -17 -9 -20 3 -2 13 5 23 16 10 11 14 20 9 20
-5 -1 -15 -8 -23 -16z"/>
<path d="M1245 680 c10 -11 23 -20 28 -20 6 0 2 9 -8 20 -10 11 -23 20 -28 20
-6 0 -2 -9 8 -20z"/>
</g>
</svg>
